<svg width="17" height="17" viewBox="0 0 17 17" fill="none" xmlns="http://www.w3.org/2000/svg">
<path d="M1.042 15.355C0.786 15.4497 0.548333 15.4217 0.329 15.271C0.109667 15.1204 0 14.908 0 14.634V2.40403C0 2.22536 0.0433334 2.06236 0.13 1.91503C0.216667 1.76769 0.342667 1.66536 0.508 1.60803L5 0.0770264L11 2.17703L14.958 0.647026C15.214 0.551693 15.4517 0.569693 15.671 0.701026C15.8903 0.83236 16 1.02836 16 1.28903V8.00203C15.8527 7.83669 15.698 7.68236 15.536 7.53903C15.374 7.39569 15.1953 7.26469 15 7.14603V1.70003L11.5 3.00503V6.23103C11.3167 6.24369 11.1447 6.26003 10.984 6.28003C10.824 6.30003 10.6627 6.33636 10.5 6.38903V3.00403L5.5 1.25803V13.64L1.042 15.355ZM1 14.3L4.5 12.958V1.25803L1 2.45003V14.3ZM11.885 14.211C12.541 14.211 13.0887 13.9964 13.528 13.567C13.9673 13.1377 14.1887 12.5834 14.192 11.904C14.196 11.2474 13.9767 10.6987 13.534 10.258C13.0907 9.81669 12.5407 9.59603 11.884 9.59603C11.2273 9.59603 10.679 9.81669 10.239 10.258C9.799 10.6994 9.57833 11.248 9.577 11.904C9.57567 12.56 9.79633 13.1087 10.239 13.55C10.6817 13.9914 11.23 14.212 11.884 14.212M11.884 15.212C10.9767 15.212 10.1987 14.8877 9.55 14.239C8.90133 13.5904 8.577 12.812 8.577 11.904C8.577 10.996 8.90133 10.2177 9.55 9.56903C10.1987 8.92036 10.977 8.59603 11.885 8.59603C12.793 8.59603 13.571 8.92036 14.219 9.56903C14.867 10.2177 15.1913 10.996 15.192 11.904C15.192 12.2747 15.1367 12.6244 15.026 12.953C14.9153 13.2817 14.7553 13.5834 14.546 13.858L17 16.292L16.312 17L13.858 14.546C13.5833 14.768 13.2817 14.9347 12.953 15.046C12.6243 15.156 12.2683 15.211 11.885 15.211" fill="black"/>
</svg>
