<svg width="12" height="14" viewBox="0 0 12 14" fill="none" xmlns="http://www.w3.org/2000/svg">
<path d="M5.675 0.0714941C5.835 -0.0235059 6.03 -0.0235059 6.185 0.0714941L11.645 3.39149C11.775 3.47149 11.855 3.61649 11.855 3.76649L5.93 7.74999L0 3.81599V3.76599C0 3.61599 0.08 3.47099 0.21 3.39599L5.675 0.0714941Z" fill="#F3C07B"/>
<path d="M5.928 7.12305L11.608 3.67305C11.6329 3.6582 11.6613 3.65021 11.6903 3.64991C11.7193 3.64961 11.7478 3.657 11.7731 3.67133C11.7983 3.68567 11.8192 3.70642 11.8338 3.7315C11.8484 3.75657 11.856 3.78505 11.856 3.81405V9.98405C11.8562 10.1327 11.8181 10.2788 11.7455 10.4084C11.6728 10.538 11.5679 10.6467 11.441 10.724L6.121 13.954C6.10736 13.9613 6.09269 13.9663 6.0775 13.969C6.06399 13.9728 6.05002 13.9747 6.036 13.9745C5.92132 14.0063 5.79871 13.9914 5.695 13.933H5.698L4.5 8.50005L5.928 7.12305Z" fill="#FFCE7C"/>
<path d="M5.93 13.8109V7.12595L0.255002 3.67595C0.229945 3.65984 0.201004 3.65079 0.171233 3.64976C0.141462 3.64873 0.111964 3.65575 0.0858516 3.67008C0.0597392 3.68442 0.0379804 3.70554 0.0228705 3.73121C0.0077606 3.75688 -0.000140159 3.78616 1.88197e-06 3.81595V9.98595C1.88197e-06 10.2909 0.160002 10.5709 0.415002 10.7259L5.7 13.9359C5.72256 13.9502 5.7485 13.9581 5.77515 13.959C5.80181 13.9599 5.82821 13.9536 5.85164 13.9409C5.87507 13.9281 5.89468 13.9094 5.90846 13.8865C5.92223 13.8637 5.92967 13.8376 5.93 13.8109Z" fill="#E19747"/>
<path d="M5.24998 12.391V11.411C5.24998 11.296 5.18998 11.191 5.09498 11.131L3.69498 10.286C3.59998 10.231 3.47998 10.296 3.47998 10.406V11.386C3.47998 11.501 3.53998 11.606 3.63498 11.666L5.03498 12.511C5.12998 12.566 5.24998 12.501 5.24998 12.391Z" fill="#D3D3D3"/>
<path d="M3.87999 7.27647V4.99647L2.23999 4.88647V6.46647C2.23999 6.51647 2.26499 6.56647 2.30999 6.59647L3.64999 7.41147C3.74999 7.46647 3.87999 7.39647 3.87999 7.27647Z" fill="#8C5543"/>
<path d="M8.16999 1.28149L2.23999 4.88649L3.87999 5.88649L9.80999 2.28649L8.16999 1.28149Z" fill="#A56953"/>
</svg>
